<svg width="160" height="39" viewBox="0 0 160 39" fill="none" xmlns="http://www.w3.org/2000/svg">
<path d="M36.8979 16.0154C36.8165 15.5941 37.0942 15.1823 37.5203 15.1009C37.9464 15.0195 38.3582 15.2972 38.4396 15.7233C39.67 22.1533 37.6065 28.6119 33.106 33.1124C25.5318 40.6866 13.2513 40.6866 5.67706 33.1124C-1.89235 25.5382 -1.89235 13.2576 5.67706 5.68344C11.8054 -0.440076 21.2516 -1.76628 28.8114 2.44214C29.1896 2.6528 29.3285 3.13158 29.1178 3.50981C28.9072 3.88804 28.4284 4.0221 28.0502 3.81144C21.1079 -0.0474814 12.4182 1.1686 6.7926 6.7942C-0.168768 13.7556 -0.168768 25.0403 6.7926 31.9969C13.7492 38.9582 25.0339 38.9582 31.9953 31.9969C36.1319 27.8602 38.0278 21.9139 36.8979 16.0154Z" fill="black"/>
<path d="M7.38144 15.1584C8.93745 13.6071 11.475 13.6071 13.031 15.1584L18.3741 20.5063L33.0677 4.25669C34.5423 2.62886 37.075 2.50438 38.7028 3.97422C40.3594 5.30042 40.4025 8.0438 38.9853 9.60939C33.3741 15.8143 27.2553 22.8714 21.4143 29.038C19.8391 30.7281 17.3591 30.6371 15.693 29.1146L7.38144 20.8079C5.83021 19.2519 5.83021 16.7144 7.38144 15.1584Z" fill="black"/>
<path d="M48.888 19.0205C48.888 17.3885 49.264 15.9245 50.016 14.6285C50.784 13.3325 51.816 12.3245 53.112 11.6045C54.424 10.8685 55.856 10.5005 57.408 10.5005C59.184 10.5005 60.76 10.9405 62.136 11.8205C63.528 12.6845 64.536 13.9165 65.16 15.5165H61.872C61.44 14.6365 60.84 13.9805 60.072 13.5485C59.304 13.1165 58.416 12.9005 57.408 12.9005C56.304 12.9005 55.32 13.1485 54.456 13.6445C53.592 14.1405 52.912 14.8525 52.416 15.7805C51.936 16.7085 51.696 17.7885 51.696 19.0205C51.696 20.2525 51.936 21.3325 52.416 22.2605C52.912 23.1885 53.592 23.9085 54.456 24.4205C55.32 24.9165 56.304 25.1645 57.408 25.1645C58.416 25.1645 59.304 24.9485 60.072 24.5165C60.84 24.0845 61.44 23.4285 61.872 22.5485H65.16C64.536 24.1485 63.528 25.3805 62.136 26.2445C60.76 27.1085 59.184 27.5405 57.408 27.5405C55.84 27.5405 54.408 27.1805 53.112 26.4605C51.816 25.7245 50.784 24.7085 50.016 23.4125C49.264 22.1165 48.888 20.6525 48.888 19.0205ZM75.2025 13.9565C76.2105 13.9565 77.1065 14.1725 77.8905 14.6045C78.6905 15.0365 79.3145 15.6765 79.7625 16.5245C80.2265 17.3725 80.4585 18.3965 80.4585 19.5965V27.3965H77.7465V20.0045C77.7465 18.8205 77.4505 17.9165 76.8585 17.2925C76.2665 16.6525 75.4585 16.3325 74.4345 16.3325C73.4105 16.3325 72.5945 16.6525 71.9865 17.2925C71.3945 17.9165 71.0985 18.8205 71.0985 20.0045V27.3965H68.3625V9.63651H71.0985V15.7085C71.5625 15.1485 72.1465 14.7165 72.8505 14.4125C73.5705 14.1085 74.3545 13.9565 75.2025 13.9565ZM96.0684 20.4605C96.0684 20.9565 96.0364 21.4045 95.9724 21.8045H85.8684C85.9484 22.8605 86.3404 23.7085 87.0444 24.3485C87.7484 24.9885 88.6124 25.3085 89.6364 25.3085C91.1084 25.3085 92.1484 24.6925 92.7564 23.4605H95.7084C95.3084 24.6765 94.5804 25.6765 93.5244 26.4605C92.4844 27.2285 91.1884 27.6125 89.6364 27.6125C88.3724 27.6125 87.2364 27.3325 86.2284 26.7725C85.2364 26.1965 84.4524 25.3965 83.8764 24.3725C83.3164 23.3325 83.0364 22.1325 83.0364 20.7725C83.0364 19.4125 83.3084 18.2205 83.8524 17.1965C84.4124 16.1565 85.1884 15.3565 86.1804 14.7965C87.1884 14.2365 88.3404 13.9565 89.6364 13.9565C90.8844 13.9565 91.9964 14.2285 92.9724 14.7725C93.9484 15.3165 94.7084 16.0845 95.2524 17.0765C95.7964 18.0525 96.0684 19.1805 96.0684 20.4605ZM93.2124 19.5965C93.1964 18.5885 92.8364 17.7805 92.1324 17.1725C91.4284 16.5645 90.5564 16.2605 89.5164 16.2605C88.5724 16.2605 87.7644 16.5645 87.0924 17.1725C86.4204 17.7645 86.0204 18.5725 85.8924 19.5965H93.2124ZM97.8489 20.7725C97.8489 19.4125 98.1209 18.2205 98.6649 17.1965C99.2249 16.1565 99.9929 15.3565 100.969 14.7965C101.945 14.2365 103.065 13.9565 104.329 13.9565C105.929 13.9565 107.249 14.3405 108.289 15.1085C109.345 15.8605 110.057 16.9405 110.425 18.3485H107.473C107.233 17.6925 106.849 17.1805 106.321 16.8125C105.793 16.4445 105.129 16.2605 104.329 16.2605C103.209 16.2605 102.313 16.6605 101.641 17.4605C100.985 18.2445 100.657 19.3485 100.657 20.7725C100.657 22.1965 100.985 23.3085 101.641 24.1085C102.313 24.9085 103.209 25.3085 104.329 25.3085C105.913 25.3085 106.961 24.6125 107.473 23.2205H110.425C110.041 24.5645 109.321 25.6365 108.265 26.4365C107.209 27.2205 105.897 27.6125 104.329 27.6125C103.065 27.6125 101.945 27.3325 100.969 26.7725C99.9929 26.1965 99.2249 25.3965 98.6649 24.3725C98.1209 23.3325 97.8489 22.1325 97.8489 20.7725ZM118.384 20.7965L124.48 27.3965H120.784L115.888 21.7085V27.3965H113.152V9.63651H115.888V19.9565L120.688 14.1725H124.48L118.384 20.7965ZM129.177 9.63651V27.3965H126.441V9.63651H129.177ZM134.161 12.4205C133.665 12.4205 133.249 12.2525 132.913 11.9165C132.577 11.5805 132.409 11.1645 132.409 10.6685C132.409 10.1725 132.577 9.75651 132.913 9.42051C133.249 9.08451 133.665 8.91651 134.161 8.91651C134.641 8.91651 135.049 9.08451 135.385 9.42051C135.721 9.75651 135.889 10.1725 135.889 10.6685C135.889 11.1645 135.721 11.5805 135.385 11.9165C135.049 12.2525 134.641 12.4205 134.161 12.4205ZM135.505 14.1725V27.3965H132.769V14.1725H135.505ZM143.897 27.6125C142.857 27.6125 141.921 27.4285 141.089 27.0605C140.273 26.6765 139.625 26.1645 139.145 25.5245C138.665 24.8685 138.409 24.1405 138.377 23.3405H141.209C141.257 23.9005 141.521 24.3725 142.001 24.7565C142.497 25.1245 143.113 25.3085 143.849 25.3085C144.617 25.3085 145.209 25.1645 145.625 24.8765C146.057 24.5725 146.273 24.1885 146.273 23.7245C146.273 23.2285 146.033 22.8605 145.553 22.6205C145.089 22.3805 144.345 22.1165 143.321 21.8285C142.329 21.5565 141.521 21.2925 140.897 21.0365C140.273 20.7805 139.729 20.3885 139.265 19.8605C138.817 19.3325 138.593 18.6365 138.593 17.7725C138.593 17.0685 138.801 16.4285 139.217 15.8525C139.633 15.2605 140.225 14.7965 140.993 14.4605C141.777 14.1245 142.673 13.9565 143.681 13.9565C145.185 13.9565 146.393 14.3405 147.305 15.1085C148.233 15.8605 148.729 16.8925 148.793 18.2045H146.057C146.009 17.6125 145.769 17.1405 145.337 16.7885C144.905 16.4365 144.321 16.2605 143.585 16.2605C142.865 16.2605 142.313 16.3965 141.929 16.6685C141.545 16.9405 141.353 17.3005 141.353 17.7485C141.353 18.1005 141.481 18.3965 141.737 18.6365C141.993 18.8765 142.305 19.0685 142.673 19.2125C143.041 19.3405 143.585 19.5085 144.305 19.7165C145.265 19.9725 146.049 20.2365 146.657 20.5085C147.281 20.7645 147.817 21.1485 148.265 21.6605C148.713 22.1725 148.945 22.8525 148.961 23.7005C148.961 24.4525 148.753 25.1245 148.337 25.7165C147.921 26.3085 147.329 26.7725 146.561 27.1085C145.809 27.4445 144.921 27.6125 143.897 27.6125ZM155.109 16.4045V23.7245C155.109 24.2205 155.221 24.5805 155.445 24.8045C155.685 25.0125 156.085 25.1165 156.645 25.1165H158.325V27.3965H156.165C154.933 27.3965 153.989 27.1085 153.333 26.5325C152.677 25.9565 152.349 25.0205 152.349 23.7245V16.4045H150.789V14.1725H152.349V10.8845H155.109V14.1725H158.325V16.4045H155.109Z" fill="black"/>
</svg>
