<svg width="112" height="130" viewBox="0 0 112 130" fill="none" xmlns="http://www.w3.org/2000/svg">
<path d="M89.7958 32.0308C89.633 31.1881 90.1884 30.3646 91.0406 30.2018C91.8928 30.0391 92.7163 30.5944 92.8791 31.4467C95.34 44.3065 91.213 57.2238 82.212 66.2248C67.0636 81.3732 42.5025 81.3732 27.3541 66.2248C12.2153 51.0764 12.2153 26.5153 27.3541 11.3669C39.6107 -0.880151 58.5031 -3.53256 73.6228 4.88428C74.3793 5.30561 74.657 6.26315 74.2357 7.01962C73.8143 7.77608 72.8568 8.04419 72.1003 7.62287C58.2159 -0.0949629 40.8364 2.33721 29.5852 13.5884C15.6625 27.5111 15.6625 50.0805 29.5852 63.9937C43.4984 77.9164 66.0678 77.9164 79.9905 63.9937C88.2637 55.7205 92.0556 43.8278 89.7958 32.0308Z" fill="black"/>
<path d="M30.763 30.3168C33.875 27.2144 38.95 27.2144 42.0621 30.3168L52.7483 41.0126L82.1354 8.51345C85.0847 5.25779 90.1501 5.00883 93.4058 7.9485C96.7189 10.6009 96.8051 16.0877 93.9707 19.2188C82.7483 31.6287 70.5108 45.7429 58.8287 58.0761C55.6784 61.4563 50.7183 61.2743 47.386 58.2293L30.763 41.6159C27.6605 38.5038 27.6605 33.4288 30.763 30.3168Z" fill="black"/>
<path d="M0.888 111.21C0.888 109.578 1.264 108.114 2.016 106.818C2.784 105.522 3.816 104.514 5.112 103.794C6.424 103.058 7.856 102.69 9.408 102.69C11.184 102.69 12.76 103.13 14.136 104.01C15.528 104.874 16.536 106.106 17.16 107.706H13.872C13.44 106.826 12.84 106.17 12.072 105.738C11.304 105.306 10.416 105.09 9.408 105.09C8.304 105.09 7.32 105.338 6.456 105.834C5.592 106.33 4.912 107.042 4.416 107.97C3.936 108.898 3.696 109.978 3.696 111.21C3.696 112.442 3.936 113.522 4.416 114.45C4.912 115.378 5.592 116.098 6.456 116.61C7.32 117.106 8.304 117.354 9.408 117.354C10.416 117.354 11.304 117.138 12.072 116.706C12.84 116.274 13.44 115.618 13.872 114.738H17.16C16.536 116.338 15.528 117.57 14.136 118.434C12.76 119.298 11.184 119.73 9.408 119.73C7.84 119.73 6.408 119.37 5.112 118.65C3.816 117.914 2.784 116.898 2.016 115.602C1.264 114.306 0.888 112.842 0.888 111.21ZM27.2025 106.146C28.2105 106.146 29.1065 106.362 29.8905 106.794C30.6905 107.226 31.3145 107.866 31.7625 108.714C32.2265 109.562 32.4585 110.586 32.4585 111.786V119.586H29.7465V112.194C29.7465 111.01 29.4505 110.106 28.8585 109.482C28.2665 108.842 27.4585 108.522 26.4345 108.522C25.4105 108.522 24.5945 108.842 23.9865 109.482C23.3945 110.106 23.0985 111.01 23.0985 112.194V119.586H20.3625V101.826H23.0985V107.898C23.5625 107.338 24.1465 106.906 24.8505 106.602C25.5705 106.298 26.3545 106.146 27.2025 106.146ZM48.0684 112.65C48.0684 113.146 48.0364 113.594 47.9724 113.994H37.8684C37.9484 115.05 38.3404 115.898 39.0444 116.538C39.7484 117.178 40.6124 117.498 41.6364 117.498C43.1084 117.498 44.1484 116.882 44.7564 115.65H47.7084C47.3084 116.866 46.5804 117.866 45.5244 118.65C44.4844 119.418 43.1884 119.802 41.6364 119.802C40.3724 119.802 39.2364 119.522 38.2284 118.962C37.2364 118.386 36.4524 117.586 35.8764 116.562C35.3164 115.522 35.0364 114.322 35.0364 112.962C35.0364 111.602 35.3084 110.41 35.8524 109.386C36.4124 108.346 37.1884 107.546 38.1804 106.986C39.1884 106.426 40.3404 106.146 41.6364 106.146C42.8844 106.146 43.9964 106.418 44.9724 106.962C45.9484 107.506 46.7084 108.274 47.2524 109.266C47.7964 110.242 48.0684 111.37 48.0684 112.65ZM45.2124 111.786C45.1964 110.778 44.8364 109.97 44.1324 109.362C43.4284 108.754 42.5564 108.45 41.5164 108.45C40.5724 108.45 39.7644 108.754 39.0924 109.362C38.4204 109.954 38.0204 110.762 37.8924 111.786H45.2124ZM49.8489 112.962C49.8489 111.602 50.1209 110.41 50.6649 109.386C51.2249 108.346 51.9929 107.546 52.9689 106.986C53.9449 106.426 55.0649 106.146 56.3289 106.146C57.9289 106.146 59.2489 106.53 60.2889 107.298C61.3449 108.05 62.0569 109.13 62.4249 110.538H59.4729C59.2329 109.882 58.8489 109.37 58.3209 109.002C57.7929 108.634 57.1289 108.45 56.3289 108.45C55.2089 108.45 54.3129 108.85 53.6409 109.65C52.9849 110.434 52.6569 111.538 52.6569 112.962C52.6569 114.386 52.9849 115.498 53.6409 116.298C54.3129 117.098 55.2089 117.498 56.3289 117.498C57.9129 117.498 58.9609 116.802 59.4729 115.41H62.4249C62.0409 116.754 61.3209 117.826 60.2649 118.626C59.2089 119.41 57.8969 119.802 56.3289 119.802C55.0649 119.802 53.9449 119.522 52.9689 118.962C51.9929 118.386 51.2249 117.586 50.6649 116.562C50.1209 115.522 49.8489 114.322 49.8489 112.962ZM70.3836 112.986L76.4796 119.586H72.7836L67.8876 113.898V119.586H65.1516V101.826H67.8876V112.146L72.6876 106.362H76.4796L70.3836 112.986ZM81.1766 101.826V119.586H78.4406V101.826H81.1766ZM86.1608 104.61C85.6648 104.61 85.2488 104.442 84.9128 104.106C84.5768 103.77 84.4088 103.354 84.4088 102.858C84.4088 102.362 84.5768 101.946 84.9128 101.61C85.2488 101.274 85.6648 101.106 86.1608 101.106C86.6408 101.106 87.0488 101.274 87.3848 101.61C87.7208 101.946 87.8888 102.362 87.8888 102.858C87.8888 103.354 87.7208 103.77 87.3848 104.106C87.0488 104.442 86.6408 104.61 86.1608 104.61ZM87.5048 106.362V119.586H84.7688V106.362H87.5048ZM95.8969 119.802C94.8569 119.802 93.9209 119.618 93.0889 119.25C92.2729 118.866 91.6249 118.354 91.1449 117.714C90.6649 117.058 90.4089 116.33 90.3769 115.53H93.2089C93.2569 116.09 93.5209 116.562 94.0009 116.946C94.4969 117.314 95.1129 117.498 95.8489 117.498C96.6169 117.498 97.2089 117.354 97.6249 117.066C98.0569 116.762 98.2729 116.378 98.2729 115.914C98.2729 115.418 98.0329 115.05 97.5529 114.81C97.0889 114.57 96.3449 114.306 95.3209 114.018C94.3289 113.746 93.5209 113.482 92.8969 113.226C92.2729 112.97 91.7289 112.578 91.2649 112.05C90.8169 111.522 90.5929 110.826 90.5929 109.962C90.5929 109.258 90.8009 108.618 91.2169 108.042C91.6329 107.45 92.2249 106.986 92.9929 106.65C93.7769 106.314 94.6729 106.146 95.6809 106.146C97.1849 106.146 98.3929 106.53 99.3049 107.298C100.233 108.05 100.729 109.082 100.793 110.394H98.0569C98.0089 109.802 97.7689 109.33 97.3369 108.978C96.9049 108.626 96.3209 108.45 95.5849 108.45C94.8649 108.45 94.3129 108.586 93.9289 108.858C93.5449 109.13 93.3529 109.49 93.3529 109.938C93.3529 110.29 93.4809 110.586 93.7369 110.826C93.9929 111.066 94.3049 111.258 94.6729 111.402C95.0409 111.53 95.5849 111.698 96.3049 111.906C97.2649 112.162 98.0489 112.426 98.6569 112.698C99.2809 112.954 99.8169 113.338 100.265 113.85C100.713 114.362 100.945 115.042 100.961 115.89C100.961 116.642 100.753 117.314 100.337 117.906C99.9209 118.498 99.3289 118.962 98.5609 119.298C97.8089 119.634 96.9209 119.802 95.8969 119.802ZM107.109 108.594V115.914C107.109 116.41 107.221 116.77 107.445 116.994C107.685 117.202 108.085 117.306 108.645 117.306H110.325V119.586H108.165C106.933 119.586 105.989 119.298 105.333 118.722C104.677 118.146 104.349 117.21 104.349 115.914V108.594H102.789V106.362H104.349V103.074H107.109V106.362H110.325V108.594H107.109Z" fill="black"/>
</svg>
