<svg width="40" height="39" viewBox="0 0 40 39" fill="none" xmlns="http://www.w3.org/2000/svg">
<path d="M36.8979 16.0154C36.8165 15.5941 37.0942 15.1823 37.5203 15.1009C37.9464 15.0195 38.3582 15.2972 38.4396 15.7233C39.67 22.1533 37.6065 28.6119 33.106 33.1124C25.5318 40.6866 13.2513 40.6866 5.67706 33.1124C-1.89235 25.5382 -1.89235 13.2576 5.67706 5.68344C11.8054 -0.440076 21.2516 -1.76628 28.8114 2.44214C29.1896 2.6528 29.3285 3.13158 29.1178 3.50981C28.9072 3.88804 28.4284 4.0221 28.0502 3.81144C21.1079 -0.0474814 12.4182 1.1686 6.7926 6.7942C-0.168768 13.7556 -0.168768 25.0403 6.7926 31.9969C13.7492 38.9582 25.0339 38.9582 31.9953 31.9969C36.1319 27.8602 38.0278 21.9139 36.8979 16.0154Z" fill="green"/>
<path d="M7.38168 15.1583C8.9377 13.6071 11.4752 13.6071 13.0312 15.1583L18.3743 20.5062L33.0679 4.2566C34.5425 2.62877 37.0752 2.50429 38.7031 3.97413C40.3596 5.30033 40.4027 8.0437 38.9855 9.60929C33.3743 15.8142 27.2556 22.8713 21.4145 29.0379C19.8394 30.728 17.3593 30.637 15.6932 29.1145L7.38168 20.8078C5.83045 19.2518 5.83045 16.7143 7.38168 15.1583Z" fill="green"/>
</svg>
