<svg width="40" height="40" viewBox="0 0 28 28" fill="none" xmlns="http://www.w3.org/2000/svg">
<g clip-path="url(#clip0_15_477)">
<path d="M14 0C11.2311 0 8.52431 0.821086 6.22202 2.35943C3.91973 3.89777 2.12532 6.08427 1.06569 8.64243C0.00606596 11.2006 -0.271181 14.0155 0.269012 16.7313C0.809205 19.447 2.14258 21.9416 4.10051 23.8995C6.05845 25.8574 8.55301 27.1908 11.2687 27.731C13.9845 28.2712 16.7994 27.9939 19.3576 26.9343C21.9157 25.8747 24.1022 24.0803 25.6406 21.778C27.1789 19.4757 28 16.7689 28 14C28 10.287 26.525 6.72601 23.8995 4.1005C21.274 1.475 17.713 0 14 0ZM14 8C14.7911 8 15.5645 8.2346 16.2223 8.67412C16.8801 9.11365 17.3928 9.73836 17.6955 10.4693C17.9983 11.2002 18.0775 12.0044 17.9231 12.7804C17.7688 13.5563 17.3878 14.269 16.8284 14.8284C16.269 15.3878 15.5563 15.7688 14.7804 15.9231C14.0044 16.0775 13.2002 15.9983 12.4693 15.6955C11.7384 15.3928 11.1137 14.8801 10.6741 14.2223C10.2346 13.5645 10 12.7911 10 12C10 10.9391 10.4214 9.92172 11.1716 9.17157C11.9217 8.42143 12.9391 8 14 8ZM14 26C11.1513 26.0066 8.39462 24.9919 6.23001 23.14C6.54625 21.8245 7.19098 20.6107 8.10388 19.612C9.01679 18.6134 10.1681 17.8627 11.45 17.43C12.2479 17.8046 13.1185 17.9988 14 17.9988C14.8815 17.9988 15.7521 17.8046 16.55 17.43C17.832 17.8627 18.9832 18.6134 19.8961 19.612C20.809 20.6107 21.4538 21.8245 21.77 23.14C19.6054 24.9919 16.8487 26.0066 14 26Z" fill="black"/>
</g>
<defs>
<clipPath id="clip0_15_477">
<rect width="28" height="28" fill="white"/>
</clipPath>
</defs>
</svg>
